#!OML:ASF X:\für Bonn\!DataBase\2005_08_12_Daniel\c3d\Daniel.ASF
:FULLY-SPECIFIED
:DEGREES
2372
root 0.0499622 17.7421 -18.239 -551.682 -32.3751 -521.124
lowerback 10.1214 -5.43397 6.40602
upperback 1.97065 -6.63834 0.431224
thorax -4.25208 -3.41848 -2.17968
lowerneck -3.73309 12.4785 0.343801
upperneck 3.55026 16.8783 -10.2317
head 2.81569 8.01714 -2.6792
rclavicle 1.10027e-013 -3.49861e-014
rhumerus -65.8739 6.26897 -89.2611
rradius 56.4068
rwrist 3.3591
rhand -34.4819 34.2887
rfingers 7.12502
rthumb -7.64468 4.44689
lclavicle 1.10027e-013 -3.49861e-014
lhumerus -51.5794 -5.34679 96.2523
lradius 124.734
lwrist 16.2383
lhand -8.08445 -14.1982
lfingers 7.12502
lthumb 17.8276 15.0046
rfemur -24.7829 9.25748 26.0612
rtibia 49.395
rfoot -4.79322 -8.32269
rtoes -10.3481
lfemur 5.84255 -1.8113 -22.8752
ltibia 41.3269
lfoot -5.48702 -0.0520447
ltoes 7.29942
2373
root -0.122226 17.8356 -18.5035 -551.673 -33.1013 -521.225
lowerback 9.79287 -5.56527 6.39657
upperback 1.90148 -6.82902 0.471526
thorax -4.15487 -3.50966 -2.12993
lowerneck -3.96998 12.5999 -0.174297
upperneck 4.08313 17.0895 -9.53501
head 2.92131 8.10581 -2.33456
rclavicle -1.46107e-014 -4.77083e-015
rhumerus -66.4752 6.60881 -88.9261
rradius 55.8334
rwrist 2.9801
rhand -34.477 34.348
rfingers 7.12502
rthumb -7.63997 4.50597
lclavicle -1.46107e-014 -4.77083e-015
lhumerus -51.8797 -6.91328 95.9522
lradius 125.169
lwrist 16.1293
lhand -7.88369 -14.5452
lfingers 7.12502
lthumb 18.0207 14.64
rfemur -24.5422 10.3287 25.7596
rtibia 45.7845
rfoot -3.87567 -8.812
rtoes -11.9722
lfemur 6.47408 -1.6484 -22.7127
ltibia 41.202
lfoot -3.10443 -0.330334
ltoes 5.30043
2374
root -0.293921 17.916 -18.7664 -551.673 -33.8105 -521.371
lowerback 9.52262 -5.68842 6.33651
upperback 1.8491 -7.01166 0.506239
thorax -4.06575 -3.59665 -2.05658
lowerneck -4.17859 12.7024 -0.563291
upperneck 4.48718 17.2646 -9.04335
head 3.0111 8.17815 -2.08524
rclavicle -5.70512e-014 -3.33958e-014
rhumerus -67.0624 6.99291 -88.6128
rradius 55.3782
rwrist 2.60611
rhand -34.5584 34.325
rfingers 7.12502
rthumb -7.71854 4.48583
lclavicle -5.70512e-014 -3.33958e-014
lhumerus -52.13 -8.35974 95.6831
lradius 125.618
lwrist 16.1257
lhand -7.90563 -14.7874
lfingers 7.12502
lthumb 17.9996 14.3997
rfemur -24.235 11.6014 25.3164
rtibia 42.2382
rfoot -3.01078 -9.16548
rtoes -13.0867
lfemur 7.01499 -1.42521 -22.5624
ltibia 41.3312
lfoot -1.10447 -0.55146
ltoes 3.5252
2375
root -0.46427 17.9803 -19.0285 -551.618 -34.4814 -521.568
lowerback 9.23348 -5.775 6.24605
upperback 1.77296 -7.14808 0.546362
thorax -3.98212 -3.6607 -1.97004
lowerneck -4.24714 12.7685 -0.786203
upperneck 4.7419 17.376 -8.90384
head 3.0779 8.21684 -1.99018
rclavicle -2.5842e-015 -2.8625e-014
rhumerus -67.673 7.34406 -88.2873
rradius 54.9938
rwrist 2.2349
rhand -34.6307 34.2577
rfingers 7.12502
rthumb -7.78834 4.42113
lclavicle -2.5842e-015 -2.8625e-014
lhumerus -52.4064 -9.79144 95.5105
lradius 126.079
lwrist 16.2778
lhand -8.12608 -14.8713
lfingers 7.12502
lthumb 17.7875 14.3352
rfemur -23.9728 13.0557 24.7489
rtibia 38.8125
rfoot -2.16292 -9.35209
rtoes -12.767
lfemur 7.39991 -1.08614 -22.4205
ltibia 41.7216
lfoot 0.515585 -0.74861
ltoes 1.86446
2376
root -0.63398 18.0306 -19.2896 -551.57 -35.1378 -521.793
lowerback 8.94207 -5.83853 6.16019
upperback 1.73225 -7.25662 0.560755
thorax -3.86088 -3.71041 -1.92035
lowerneck -4.37639 12.8096 -1.05951
upperneck 4.98027 17.4578 -8.74349
head 3.14106 8.23972 -1.87941
rclavicle 4.90998e-014 -2.54444e-014
rhumerus -68.2789 7.71669 -88.0072
rradius 54.7098
rwrist 1.89312
rhand -34.7279 34.131
rfingers 7.12502
rthumb -7.88216 4.29798
lclavicle 4.90998e-014 -2.54444e-014
lhumerus -52.7083 -11.089 95.4041
lradius 126.554
lwrist 16.5346
lhand -8.44347 -14.9354
lfingers 7.12502
lthumb 17.4821 14.2985
rfemur -23.7519 14.414 24.1449
rtibia 35.5591
rfoot -1.18822 -9.42496
rtoes -11.7482
lfemur 7.68852 -0.672253 -22.2745
ltibia 42.3886
lfoot 1.77965 -0.905807
ltoes 0.529626
2377
root -0.803314 18.0673 -19.5498 -551.528 -35.7755 -522.02
lowerback 8.67707 -5.89543 6.07087
upperback 1.68351 -7.35393 0.590868
thorax -3.75874 -3.7552 -1.85189
lowerneck -4.46353 12.8424 -1.36133
upperneck 5.12925 17.5228 -8.63625
head 3.16806 8.25629 -1.78794
rclavicle 1.29608e-013 3.18055e-015
rhumerus -68.8359 8.21505 -87.7367
rradius 54.4228
rwrist 1.53277
rhand -34.6842 34.0638
rfingers 7.12502
rthumb -7.83995 4.22912
lclavicle 1.29608e-013 3.18055e-015
lhumerus -53.1272 -12.1448 95.4032
lradius 126.909
lwrist 16.7767
lhand -8.77267 -15.1646
lfingers 7.12502
lthumb 17.1653 14.0972
rfemur -23.5896 15.539 23.5431
rtibia 32.5949
rfoot -0.211147 -9.28429
rtoes -10.9155
lfemur 7.87316 -0.262015 -22.143
ltibia 43.303
lfoot 2.46851 -0.861686
ltoes -1.46061
2378
root -0.973667 18.0916 -19.8083 -551.486 -36.3973 -522.255
lowerback 8.40984 -5.93368 5.97776
upperback 1.65036 -7.42795 0.622038
thorax -3.63605 -3.78822 -1.78573
lowerneck -4.56086 12.8635 -1.56257
upperneck 5.27108 17.573 -8.63092
head 3.21589 8.26313 -1.74346
rclavicle -1.08338e-014 4.77083e-015
rhumerus -69.3357 8.77253 -87.4798
rradius 54.1006
rwrist 1.32295
rhand -34.5839 34.0152
rfingers 7.12502
rthumb -7.74316 4.17697
lclavicle -1.08338e-014 4.77083e-015
lhumerus -53.5939 -13.1414 95.4027
lradius 127.144
lwrist 17.0988
lhand -9.20982 -15.411
lfingers 7.12502
lthumb 16.7445 13.8869
rfemur -23.5404 16.6304 22.9129
rtibia 30.0262
rfoot 0.862094 -8.99343
rtoes -10.0494
lfemur 7.95528 0.14893 -22.0209
ltibia 44.4488
lfoot 2.79388 -0.601286
ltoes -3.37531
2379
root -1.14322 18.1062 -20.0656 -551.482 -37.0103 -522.475
lowerback 8.19216 -5.97077 5.87571
upperback 1.61972 -7.49773 0.666605
thorax -3.53448 -3.8197 -1.6971
lowerneck -4.6215 12.878 -1.7169
upperneck 5.36617 17.6106 -8.72274
head 3.25646 8.26305 -1.74084
rclavicle -6.09275e-014 2.54444e-014
rhumerus -69.8387 9.40301 -87.2152
rradius 53.8665
rwrist 1.19109
rhand -34.3354 33.9912
rfingers 7.12502
rthumb -7.50331 4.14425
lclavicle -6.09275e-014 2.54444e-014
lhumerus -54.0883 -13.9576 95.4248
lradius 127.22
lwrist 17.43
lhand -9.5262 -15.7289
lfingers 7.12502
lthumb 16.4399 13.5944
rfemur -23.6309 17.908 22.2316
rtibia 27.9873
rfoot 1.89711 -8.90883
rtoes -8.8718
lfemur 7.9731 0.538524 -21.8791
ltibia 45.7935
lfoot 3.00473 -0.262034
ltoes -4.28573
2380
root -1.31391 18.1103 -20.3203 -551.531 -37.5997 -522.657
lowerback 8.01968 -5.98974 5.81954
upperback 1.60622 -7.53782 0.707714
thorax -3.4436 -3.83738 -1.63743
lowerneck -4.7333 12.8884 -1.77471
upperneck 5.48095 17.6466 -8.8385
head 3.32606 8.26162 -1.75562
rclavicle 9.13416e-014 -2.22639e-014
rhumerus -70.2334 9.96015 -86.8941
rradius 53.5768
rwrist 1.21897
rhand -33.9902 34.1429
rfingers 7.12502
rthumb -7.17011 4.2844
lclavicle 9.13416e-014 -2.22639e-014
lhumerus -54.612 -14.6402 95.4429
lradius 127.167
lwrist 17.7202
lhand -9.77137 -16.104
lfingers 7.12502
lthumb 16.2038 13.2388
rfemur -23.84 19.4142 21.5071
rtibia 26.5067
rfoot 2.699 -9.28941
rtoes -7.49683
lfemur 7.91733 0.857233 -21.7468
ltibia 47.3411
lfoot 3.05542 0.110866
ltoes -4.79988
2381
root -1.4834 18.1005 -20.5734 -551.628 -38.1653 -522.828
lowerback 7.91225 -5.98646 5.75203
upperback 1.59663 -7.54523 0.755047
thorax -3.37974 -3.8394 -1.563
lowerneck -4.78102 12.8808 -1.67607
upperneck 5.54429 17.6508 -9.10467
head 3.39879 8.24566 -1.84833
rclavicle 1.73937e-014 -1.59028e-015
rhumerus -70.5498 10.4397 -86.5261
rradius 53.2935
rwrist 1.41176
rhand -33.5744 34.2915
rfingers 7.12502
rthumb -6.7687 4.41968
lclavicle 1.73937e-014 -1.59028e-015
lhumerus -55.2179 -15.1045 95.5213
lradius 127.012
lwrist 17.8986
lhand -9.78738 -16.4986
lfingers 7.12502
lthumb 16.1884 12.8454
rfemur -24.1656 20.9541 20.8016
rtibia 25.6061
rfoot 3.39088 -9.98094
rtoes -6.70748
lfemur 7.8088 1.12581 -21.6269
ltibia 49.0853
lfoot 2.88161 0.436277
ltoes -5.3556
2382
root -1.65184 18.0746 -20.8242 -551.826 -38.7045 -522.919
lowerback 7.85006 -5.97942 5.75003
upperback 1.62245 -7.5422 0.81231
thorax -3.31001 -3.83711 -1.51251
lowerneck -4.85692 12.8774 -1.48902
upperneck 5.60718 17.6622 -9.42501
head 3.493 8.23239 -1.96942
rclavicle -7.05686e-015 2.38542e-014
rhumerus -70.6773 10.848 -86.0957
rradius 52.9729
rwrist 1.77029
rhand -33.2539 34.4834
rfingers 7.12502
rthumb -6.45932 4.60192
lclavicle -7.05686e-015 2.38542e-014
lhumerus -55.8376 -15.3602 95.6084
lradius 126.788
lwrist 17.9703
lhand -9.66804 -16.9349
lfingers 7.12502
lthumb 16.3033 12.3998
rfemur -24.5604 21.9773 20.3471
rtibia 25.2211
rfoot 4.39207 -10.4121
rtoes -5.99114
lfemur 7.641 1.36387 -21.4419
ltibia 51.0134
lfoot 2.55516 0.734417
ltoes -5.68874
2383
root -1.82121 18.034 -21.0722 -552.106 -39.2045 -522.958
lowerback 7.85563 -5.95207 5.81566
upperback 1.66186 -7.50369 0.869579
thorax -3.26944 -3.81863 -1.49643
lowerneck -4.91987 12.8565 -1.2933
upperneck 5.61606 17.6464 -9.77354
head 3.56942 8.20803 -2.1059
rclavicle -5.88403e-014 1.74931e-014
rhumerus -70.7107 11.1992 -85.6424
rradius 52.7158
rwrist 2.12465
rhand -32.9903 34.6097
rfingers 7.12502
rthumb -6.20489 4.72061
lclavicle -5.88403e-014 1.74931e-014
lhumerus -56.4664 -15.5356 95.7099
lradius 126.522
lwrist 18
lhand -9.41887 -17.2263
lfingers 7.12502
lthumb 16.5432 12.0885
rfemur -24.9291 22.5372 20.1144
rtibia 25.2619
rfoot 5.33688 -10.4982
rtoes -5.8467
lfemur 7.43069 1.60382 -21.2
ltibia 53.1079
lfoot 2.19604 1.04898
ltoes -5.24538
2384
root -1.99347 17.9831 -21.3173 -552.569 -39.667 -522.945
lowerback 8.02896 -5.92579 5.91221
upperback 1.7338 -7.45568 0.935235
thorax -3.28959 -3.79726 -1.47351
lowerneck -4.95016 12.8424 -1.04773
upperneck 5.61526 17.6363 -10.1479
head 3.64554 8.18814 -2.26147
rclavicle -1.98288e-014 1.59028e-014
rhumerus -70.7188 11.5669 -85.2309
rradius 52.5612
rwrist 2.42435
rhand -32.9062 34.6357
rfingers 7.12502
rthumb -6.12368 4.74421
lclavicle -1.98288e-014 1.59028e-014
lhumerus -57.0786 -15.5737 95.8787
lradius 126.227
lwrist 17.9501
lhand -9.17128 -17.3644
lfingers 7.12502
lthumb 16.7816 11.9304
rfemur -25.0733 22.4762 20.1896
rtibia 25.6032
rfoot 6.14311 -10.134
rtoes -6.29922
lfemur 7.29616 1.863 -20.8921
ltibia 55.3512
lfoot 1.80814 1.4097
ltoes -4.34886
2385
root -2.16583 17.9179 -21.5586 -553.234 -40.0969 -522.903
lowerback 8.39288 -5.88729 6.06978
upperback 1.86803 -7.37829 0.966001
thorax -3.3596 -3.76311 -1.50683
lowerneck -4.94255 12.8146 -0.750374
upperneck 5.56304 17.6013 -10.5552
head 3.70504 8.16058 -2.44248
rclavicle -4.47762e-014 -3.18055e-015
rhumerus -70.6445 11.8567 -84.8452
rradius 52.4919
rwrist 2.68127
rhand -33.0138 34.5453
rfingers 7.12502
rthumb -6.22756 4.65681
lclavicle -4.47762e-014 -3.18055e-015
lhumerus -57.6549 -15.5691 96.0775
lradius 125.936
lwrist 17.8421
lhand -8.86214 -17.3576
lfingers 7.12502
lthumb 17.0791 11.9117
rfemur -24.8871 21.9481 20.5198
rtibia 26.1501
rfoot 6.30407 -9.45465
rtoes -8.10096
lfemur 7.20275 2.15148 -20.5258
ltibia 57.7812
lfoot 1.45117 1.73284
ltoes -3.52071
2386
root -2.33736 17.8387 -21.7971 -553.975 -40.4807 -522.808
lowerback 8.81498 -5.83529 6.27388
upperback 2.02052 -7.27604 1.01124
thorax -3.44355 -3.71798 -1.54961
lowerneck -4.93845 12.786 -0.422389
upperneck 5.47441 17.5624 -10.9809
head 3.75791 8.1336 -2.6368
rclavicle -5.04913e-014 -6.36111e-015
rhumerus -70.4917 12.1113 -84.4493
rradius 52.5255
rwrist 2.91638
rhand -33.285 34.2581
rfingers 7.12502
rthumb -6.48932 4.37755
lclavicle -5.04913e-014 -6.36111e-015
lhumerus -58.2414 -15.4638 96.3781
lradius 125.633
lwrist 17.602
lhand -8.6478 -17.1246
lfingers 7.12502
lthumb 17.2854 12.1267
rfemur -24.4596 21.0482 21.0315
rtibia 26.8253
rfoot 6.04216 -8.51239
rtoes -11.3337
lfemur 6.93831 2.51104 -20.0537
ltibia 60.4465
lfoot 1.02502 1.94456
ltoes -3.04253
